# xmcd CD database file
#
# Track frame offsets:
#	182
#	27157
#	57817
#	137467
#	197740
#	226095
#
# Disc length: 3766 seconds
#
# Revision: 0
# Processed by: cddbd v1.5.2PL0 Copyright (c) Steve Scherf et al.
# Submitted via: CDex 1.50Beta7
#
DISCID=420eb406
DTITLE=Various Artist - Jazz A go-go 012
DYEAR=1995
DGENRE=Jazz
TTITLE0=Mike Stern Band - Jean Pierre
TTITLE1=Mike Stern Band - Chromazone
TTITLE2=Robin Eubanks Mental Images and Steve Turre - Matatape
TTITLE3=Robin Eubanks Mental Images and Steve Turre - Midtown
TTITLE4=Eric Marienthal Band - Kid's Stuff
TTITLE5=Eric Marienthal Band - Alligator Alley
EXTD=YEAR: 1995
EXTT0=
EXTT1=
EXTT2=
EXTT3=
EXTT4=
EXTT5=
PLAYORDER=
